# CAD Exchanger 3.5.3 (cadexchanger.com)
# Object Count: 1
mtllib ClockBody.mtl
g Clock
v 250.000000 700.000000 10.000000
v 250.000000 2100.000000 10.000000
v 250.000000 700.000000 5.000000
v 250.000000 2100.000000 5.000000
v 2450.000000 700.000000 10.000000
v 2450.000000 700.000000 5.000000
v 2450.000000 2100.000000 10.000000
v 2450.000000 2100.000000 5.000000
vn 1.000000 0.000000 -0.000000
vn 1.000000 0.000000 -0.000000
vn 1.000000 0.000000 -0.000000
vn 1.000000 0.000000 -0.000000
vn -0.000000 1.000000 -0.000000
vn -0.000000 1.000000 -0.000000
vn -0.000000 1.000000 -0.000000
vn -0.000000 1.000000 -0.000000
vn -1.000000 -0.000000 -0.000000
vn -1.000000 -0.000000 -0.000000
vn -1.000000 -0.000000 -0.000000
vn -1.000000 -0.000000 -0.000000
vn -0.000000 -1.000000 -0.000000
vn -0.000000 -1.000000 -0.000000
vn -0.000000 -1.000000 -0.000000
vn -0.000000 -1.000000 -0.000000
vn -0.000000 -0.000000 1.000000
vn -0.000000 -0.000000 1.000000
vn -0.000000 -0.000000 1.000000
vn -0.000000 -0.000000 1.000000
usemtl Material_1
f 3//3 4//2 2//1
f 1//4 3//3 2//1
f 6//7 3//6 1//5
f 5//8 6//7 1//5
f 8//11 6//10 5//9
f 7//12 8//11 5//9
f 4//15 8//14 7//13
f 2//16 4//15 7//13
f 3//19 6//18 8//17
f 4//20 3//19 8//17
g Clock-1
v 1050.000000 100.000000 -200.000000
v 1000.000000 0.000000 -200.000000
v 1050.000000 100.000000 0.000000
v 1000.000000 0.000000 0.000000
v 1684.272482 0.000000 -200.000000
v 1634.272482 100.000000 -200.000000
v 1684.272482 0.000000 0.000000
v 1634.272482 100.000000 0.000000
v 0.000000 0.000000 0.000000
v 0.000000 0.000000 -200.000000
v 2675.000000 2325.000000 0.000000
v 2675.000000 150.000000 0.000000
v 2675.000000 2325.000000 10.000000
v 2675.000000 150.000000 10.000000
v 25.000000 150.000000 0.000000
v 25.000000 150.000000 10.000000
v 25.000000 2325.000000 0.000000
v 25.000000 2325.000000 10.000000
v 200.000000 450.000000 -200.000000
v 450.000000 450.000000 -200.000000
v 200.000000 450.000000 -400.000000
v 450.000000 450.000000 -400.000000
v 2700.000000 0.000000 0.000000
v 2700.000000 2350.000000 0.000000
v 2700.000000 0.000000 -200.000000
v 2700.000000 2350.000000 -200.000000
v 0.000000 2350.000000 0.000000
v 0.000000 2350.000000 -200.000000
v 2250.000000 100.000000 -200.000000
v 2250.000000 450.000000 -200.000000
v 2500.000000 450.000000 -200.000000
v 2500.000000 2100.000000 -200.000000
v 200.000000 2100.000000 -200.000000
v 450.000000 100.000000 -200.000000
vn 0.894427 -0.447214 -0.000000
vn 0.894427 -0.447214 -0.000000
vn 0.894427 -0.447214 -0.000000
vn 0.894427 -0.447214 -0.000000
vn -0.894427 -0.447214 -0.000000
vn -0.894427 -0.447214 -0.000000
vn -0.894427 -0.447214 -0.000000
vn -0.894427 -0.447214 -0.000000
vn 0.000000 -1.000000 0.000000
vn 0.000000 -1.000000 0.000000
vn 0.000000 -1.000000 0.000000
vn 0.000000 -1.000000 0.000000
vn 1.000000 0.000000 0.000000
vn 1.000000 0.000000 0.000000
vn 1.000000 0.000000 0.000000
vn 1.000000 0.000000 0.000000
vn 0.000000 -1.000000 0.000000
vn 0.000000 -1.000000 0.000000
vn 0.000000 -1.000000 0.000000
vn 0.000000 -1.000000 0.000000
vn -1.000000 -0.000000 0.000000
vn -1.000000 -0.000000 0.000000
vn -1.000000 -0.000000 0.000000
vn -1.000000 -0.000000 0.000000
vn -0.000000 1.000000 0.000000
vn -0.000000 1.000000 0.000000
vn -0.000000 1.000000 0.000000
vn -0.000000 1.000000 0.000000
vn 0.000000 -1.000000 0.000000
vn 0.000000 -1.000000 0.000000
vn 0.000000 -1.000000 0.000000
vn 0.000000 -1.000000 0.000000
vn 1.000000 -0.000000 0.000000
vn 1.000000 -0.000000 0.000000
vn 1.000000 -0.000000 0.000000
vn 1.000000 -0.000000 0.000000
vn 0.000000 1.000000 0.000000
vn 0.000000 1.000000 0.000000
vn 0.000000 1.000000 0.000000
vn 0.000000 1.000000 0.000000
vn -1.000000 0.000000 0.000000
vn -1.000000 0.000000 0.000000
vn -1.000000 0.000000 0.000000
vn -1.000000 0.000000 0.000000
vn 0.000000 -1.000000 0.000000
vn 0.000000 -1.000000 0.000000
vn 0.000000 -1.000000 0.000000
vn 0.000000 -1.000000 0.000000
vn 0.000000 0.000000 1.000000
vn 0.000000 0.000000 1.000000
vn 0.000000 0.000000 1.000000
vn 0.000000 0.000000 1.000000
vn 0.000000 0.000000 1.000000
vn 0.000000 0.000000 1.000000
vn 0.000000 0.000000 1.000000
vn 0.000000 0.000000 1.000000
vn 0.000000 0.000000 1.000000
vn 0.000000 0.000000 1.000000
vn 0.000000 0.000000 1.000000
vn 0.000000 0.000000 1.000000
vn 0.000000 0.000000 -1.000000
vn 0.000000 0.000000 -1.000000
vn 0.000000 0.000000 -1.000000
vn 0.000000 0.000000 -1.000000
vn 0.000000 0.000000 -1.000000
vn 0.000000 0.000000 -1.000000
vn 0.000000 0.000000 -1.000000
vn 0.000000 0.000000 -1.000000
vn 0.000000 0.000000 -1.000000
vn 0.000000 0.000000 -1.000000
vn 0.000000 0.000000 -1.000000
vn 0.000000 0.000000 -1.000000
vn 0.000000 0.000000 -1.000000
vn 0.000000 0.000000 -1.000000
vn 0.000000 0.000000 -1.000000
vn 0.000000 0.000000 -1.000000
usemtl Material_2
f 11//23 10//21 9//24
f 11//23 12//22 10//21
f 15//27 14//25 13//28
f 15//27 16//26 14//25
f 17//31 10//29 12//30
f 18//32 10//29 17//31
f 21//35 20//33 19//34
f 22//36 20//33 21//35
f 22//39 23//37 20//38
f 24//40 23//37 22//39
f 24//43 25//41 23//42
f 26//44 25//41 24//43
f 26//47 19//45 25//46
f 21//48 19//45 26//47
f 29//51 28//49 27//50
f 30//52 28//49 29//51
f 33//55 32//53 31//54
f 34//56 32//53 33//55
f 34//59 35//57 32//58
f 36//60 35//57 34//59
f 36//63 17//61 35//62
f 18//64 17//61 36//63
f 33//67 15//65 13//66
f 31//68 15//65 33//67
f 15//70 20//78 16//69
f 19//77 32//72 35//73
f 23//79 17//74 12//75
f 20//78 31//71 32//72
f 20//78 15//70 31//71
f 20//78 32//72 19//77
f 23//79 35//73 17//74
f 23//79 12//75 11//76
f 23//79 11//76 16//69
f 20//78 23//79 16//69
f 25//80 19//77 35//73
f 25//80 35//73 23//79
f 39//85 34//95 33//96
f 37//83 13//81 14//82
f 39//85 37//83 38//84
f 36//94 34//95 41//87
f 18//93 36//94 27//88
f 28//89 42//90 27//88
f 36//94 41//87 27//88
f 9//91 10//92 42//90
f 10//92 18//93 42//90
f 18//93 27//88 42//90
f 34//95 40//86 41//87
f 34//95 39//85 40//86
f 33//96 13//81 37//83
f 33//96 37//83 39//85
g Clock-2
v 2675.000000 2325.000000 10.000000
v 25.000000 2325.000000 10.000000
v 25.000000 150.000000 10.000000
v 2675.000000 150.000000 10.000000
v 250.000000 700.000000 10.000000
v 250.000000 2100.000000 10.000000
v 2450.000000 2100.000000 10.000000
v 2450.000000 700.000000 10.000000
v 650.000000 700.000000 -400.000000
v 650.000000 1600.000000 -400.000000
v 650.000000 700.000000 -50.000000
v 650.000000 1600.000000 -50.000000
v 250.000000 700.000000 -400.000000
v 250.000000 700.000000 -50.000000
v 250.000000 1600.000000 -400.000000
v 250.000000 1600.000000 -50.000000
v 650.000000 1650.000000 -400.000000
v 650.000000 2050.000000 -400.000000
v 650.000000 1650.000000 -50.000000
v 650.000000 2050.000000 -50.000000
v 250.000000 1650.000000 -400.000000
v 250.000000 1650.000000 -50.000000
v 250.000000 2050.000000 -400.000000
v 250.000000 2050.000000 -50.000000
v 2450.000000 650.000000 -400.000000
v 2450.000000 2050.000000 -400.000000
v 2450.000000 650.000000 -50.000000
v 2450.000000 2050.000000 -50.000000
v 2150.000000 650.000000 -400.000000
v 2150.000000 650.000000 -50.000000
v 2150.000000 150.000000 -400.000000
v 2150.000000 150.000000 -50.000000
v 550.000000 150.000000 -400.000000
v 550.000000 150.000000 -50.000000
v 550.000000 650.000000 -400.000000
v 550.000000 650.000000 -50.000000
v 700.000000 650.000000 -400.000000
v 700.000000 650.000000 -50.000000
v 700.000000 2050.000000 -400.000000
v 700.000000 2050.000000 -50.000000
v 200.000000 2100.000000 -200.000000
v 200.000000 450.000000 -200.000000
v 200.000000 2100.000000 -400.000000
v 200.000000 450.000000 -400.000000
v 450.000000 450.000000 -200.000000
v 450.000000 100.000000 -200.000000
v 450.000000 450.000000 -400.000000
v 450.000000 100.000000 -400.000000
v 2250.000000 100.000000 -400.000000
v 2250.000000 100.000000 -200.000000
v 1634.272482 100.000000 -200.000000
v 1634.272482 100.000000 0.000000
v 1050.000000 100.000000 0.000000
v 1050.000000 100.000000 -200.000000
v 2250.000000 450.000000 -200.000000
v 2250.000000 450.000000 -400.000000
v 2500.000000 450.000000 -200.000000
v 2500.000000 450.000000 -400.000000
v 2500.000000 2100.000000 -200.000000
v 2500.000000 2100.000000 -400.000000
vn 0.000000 0.000000 1.000000
vn 0.000000 0.000000 1.000000
vn 0.000000 0.000000 1.000000
vn 0.000000 0.000000 1.000000
vn 0.000000 0.000000 1.000000
vn 0.000000 0.000000 1.000000
vn 0.000000 0.000000 1.000000
vn 0.000000 0.000000 1.000000
vn -1.000000 0.000000 -0.000000
vn -1.000000 0.000000 -0.000000
vn -1.000000 0.000000 -0.000000
vn -1.000000 0.000000 -0.000000
vn -0.000000 1.000000 -0.000000
vn -0.000000 1.000000 -0.000000
vn -0.000000 1.000000 -0.000000
vn -0.000000 1.000000 -0.000000
vn 1.000000 -0.000000 -0.000000
vn 1.000000 -0.000000 -0.000000
vn 1.000000 -0.000000 -0.000000
vn 1.000000 -0.000000 -0.000000
vn -0.000000 -1.000000 -0.000000
vn -0.000000 -1.000000 -0.000000
vn -0.000000 -1.000000 -0.000000
vn -0.000000 -1.000000 -0.000000
vn -0.000000 -0.000000 -1.000000
vn -0.000000 -0.000000 -1.000000
vn -0.000000 -0.000000 -1.000000
vn -0.000000 -0.000000 -1.000000
vn -1.000000 -0.000000 -0.000000
vn -1.000000 -0.000000 -0.000000
vn -1.000000 -0.000000 -0.000000
vn -1.000000 -0.000000 -0.000000
vn -0.000000 1.000000 -0.000000
vn -0.000000 1.000000 -0.000000
vn -0.000000 1.000000 -0.000000
vn -0.000000 1.000000 -0.000000
vn 1.000000 0.000000 -0.000000
vn 1.000000 0.000000 -0.000000
vn 1.000000 0.000000 -0.000000
vn 1.000000 0.000000 -0.000000
vn -0.000000 -1.000000 -0.000000
vn -0.000000 -1.000000 -0.000000
vn -0.000000 -1.000000 -0.000000
vn -0.000000 -1.000000 -0.000000
vn -0.000000 -0.000000 -1.000000
vn -0.000000 -0.000000 -1.000000
vn -0.000000 -0.000000 -1.000000
vn -0.000000 -0.000000 -1.000000
vn -1.000000 0.000000 -0.000000
vn -1.000000 0.000000 -0.000000
vn -1.000000 0.000000 -0.000000
vn -1.000000 0.000000 -0.000000
vn 0.000000 1.000000 -0.000000
vn 0.000000 1.000000 -0.000000
vn 0.000000 1.000000 -0.000000
vn 0.000000 1.000000 -0.000000
vn -1.000000 -0.000000 -0.000000
vn -1.000000 -0.000000 -0.000000
vn -1.000000 -0.000000 -0.000000
vn -1.000000 -0.000000 -0.000000
vn 0.000000 1.000000 -0.000000
vn 0.000000 1.000000 -0.000000
vn 0.000000 1.000000 -0.000000
vn 0.000000 1.000000 -0.000000
vn 1.000000 -0.000000 -0.000000
vn 1.000000 -0.000000 -0.000000
vn 1.000000 -0.000000 -0.000000
vn 1.000000 -0.000000 -0.000000
vn -0.000000 -1.000000 -0.000000
vn -0.000000 -1.000000 -0.000000
vn -0.000000 -1.000000 -0.000000
vn -0.000000 -1.000000 -0.000000
vn 1.000000 -0.000000 -0.000000
vn 1.000000 -0.000000 -0.000000
vn 1.000000 -0.000000 -0.000000
vn 1.000000 -0.000000 -0.000000
vn -0.000000 -1.000000 -0.000000
vn -0.000000 -1.000000 -0.000000
vn -0.000000 -1.000000 -0.000000
vn -0.000000 -1.000000 -0.000000
vn -0.000000 -0.000000 -1.000000
vn -0.000000 -0.000000 -1.000000
vn -0.000000 -0.000000 -1.000000
vn -0.000000 -0.000000 -1.000000
vn -0.000000 -0.000000 -1.000000
vn -0.000000 -0.000000 -1.000000
vn -0.000000 -0.000000 -1.000000
vn -0.000000 -0.000000 -1.000000
vn -1.000000 0.000000 0.000000
vn -1.000000 0.000000 0.000000
vn -1.000000 0.000000 0.000000
vn -1.000000 0.000000 0.000000
vn -1.000000 0.000000 0.000000
vn -1.000000 0.000000 0.000000
vn -1.000000 0.000000 0.000000
vn -1.000000 0.000000 0.000000
vn 0.000000 -1.000000 0.000000
vn 0.000000 -1.000000 0.000000
vn 0.000000 -1.000000 0.000000
vn 0.000000 -1.000000 0.000000
vn 0.000000 -1.000000 0.000000
vn 0.000000 -1.000000 0.000000
vn 0.000000 -1.000000 0.000000
vn 0.000000 -1.000000 0.000000
vn 1.000000 0.000000 0.000000
vn 1.000000 0.000000 0.000000
vn 1.000000 0.000000 0.000000
vn 1.000000 0.000000 0.000000
vn 0.000000 -1.000000 0.000000
vn 0.000000 -1.000000 0.000000
vn 0.000000 -1.000000 0.000000
vn 0.000000 -1.000000 0.000000
vn 1.000000 -0.000000 0.000000
vn 1.000000 -0.000000 0.000000
vn 1.000000 -0.000000 0.000000
vn 1.000000 -0.000000 0.000000
vn 0.000000 1.000000 0.000000
vn 0.000000 1.000000 0.000000
vn 0.000000 1.000000 0.000000
vn 0.000000 1.000000 0.000000
vn 0.000000 0.000000 -1.000000
vn 0.000000 0.000000 -1.000000
vn 0.000000 0.000000 -1.000000
vn 0.000000 0.000000 -1.000000
vn 0.000000 0.000000 -1.000000
vn 0.000000 0.000000 -1.000000
vn 0.000000 0.000000 -1.000000
vn 0.000000 0.000000 -1.000000
vn 0.000000 0.000000 -1.000000
vn 0.000000 0.000000 -1.000000
vn 0.000000 0.000000 -1.000000
vn 0.000000 0.000000 -1.000000
vn 0.000000 0.000000 -1.000000
vn 0.000000 0.000000 -1.000000
vn 0.000000 0.000000 -1.000000
vn 0.000000 0.000000 -1.000000
vn 0.000000 0.000000 -1.000000
vn 0.000000 0.000000 -1.000000
vn 0.000000 0.000000 -1.000000
vn 0.000000 0.000000 -1.000000
vn 0.000000 0.000000 -1.000000
vn 0.000000 0.000000 -1.000000
vn 0.000000 0.000000 -1.000000
vn 0.000000 0.000000 -1.000000
usemtl Material_3
f 50//104 47//101 45//99
f 48//102 49//103 43//97
f 47//101 44//98 45//99
f 48//102 43//97 44//98
f 48//102 44//98 47//101
f 50//104 46//100 43//97
f 50//104 45//99 46//100
f 50//104 43//97 49//103
f 53//107 54//106 52//105
f 51//108 53//107 52//105
f 56//111 53//110 51//109
f 55//112 56//111 51//109
f 58//115 56//114 55//113
f 57//116 58//115 55//113
f 54//119 58//118 57//117
f 52//120 54//119 57//117
f 53//123 58//121 54//124
f 53//123 56//122 58//121
f 61//127 62//126 60//125
f 59//128 61//127 60//125
f 64//131 61//130 59//129
f 63//132 64//131 59//129
f 66//135 64//134 63//133
f 65//136 66//135 63//133
f 62//139 66//138 65//137
f 60//140 62//139 65//137
f 61//143 66//141 62//144
f 61//143 64//142 66//141
f 69//147 70//146 68//145
f 67//148 69//147 68//145
f 72//151 69//150 67//149
f 71//152 72//151 67//149
f 74//155 72//154 71//153
f 73//156 74//155 71//153
f 75//160 74//158 73//157
f 75//160 76//159 74//158
f 78//163 76//162 75//161
f 77//164 78//163 75//161
f 80//167 78//166 77//165
f 79//168 80//167 77//165
f 82//171 80//170 79//169
f 81//172 82//171 79//169
f 70//175 82//174 81//173
f 68//176 70//175 81//173
f 78//179 80//178 76//180
f 72//182 80//178 82//177
f 74//181 76//180 80//178
f 72//182 74//181 80//178
f 70//184 72//182 82//177
f 70//184 69//183 72//182
f 85//187 84//185 83//186
f 86//188 84//185 85//187
f 89//191 88//189 87//190
f 90//192 88//189 89//191
f 93//196 90//193 91//194
f 96//199 93//196 95//198
f 93//196 91//194 92//195
f 95//198 93//196 94//197
f 96//199 88//200 90//193
f 96//199 90//193 93//196
f 91//203 97//201 92//202
f 98//204 97//201 91//203
f 98//207 99//205 97//206
f 100//208 99//205 98//207
f 100//211 101//209 99//210
f 102//212 101//209 100//211
f 102//215 83//213 101//214
f 85//216 83//213 102//215
f 73//239 71//240 98//220
f 77//237 55//228 51//225
f 75//238 90//222 89//223
f 52//226 79//236 51//225
f 57//227 86//224 85//217
f 57//227 59//229 52//226
f 55//228 89//223 86//224
f 55//228 86//224 57//227
f 63//232 59//229 57//227
f 60//230 85//217 81//235
f 63//232 57//227 85//217
f 65//231 85//217 60//230
f 63//232 85//217 65//231
f 67//233 102//218 100//219
f 67//233 100//219 98//220
f 81//235 59//229 60//230
f 68//234 102//218 67//233
f 81//235 85//217 102//218
f 81//235 102//218 68//234
f 75//238 73//239 90//222
f 79//236 77//237 51//225
f 81//235 52//226 59//229
f 81//235 79//236 52//226
f 77//237 89//223 55//228
f 73//239 91//221 90//222
f 77//237 75//238 89//223
f 73//239 98//220 91//221
f 71//240 67//233 98//220
