# CAD Exchanger 3.5.3 (cadexchanger.com)
# Object Count: 1
mtllib Table.mtl
g Solid1
v 199.197894 0.000000 -94.114512
v 199.197894 0.000000 -99.226138
v 199.197894 -100.000000 -94.114512
v 199.197894 -100.000000 -99.226138
v 193.319716 0.000000 -99.226138
v 193.319716 -100.000000 -99.226138
v 193.319716 0.000000 -94.114512
v 193.319716 -100.000000 -94.114512
v 0.064703 0.000000 -98.803358
v 0.064703 0.000000 -94.114512
v 0.064703 -100.000000 -98.803358
v 0.064703 -100.000000 -94.114512
v 3.944167 0.000000 -94.114512
v 3.944167 -100.000000 -94.114512
v 3.944167 0.000000 -98.803358
v 3.944167 -100.000000 -98.803358
v 3.944167 0.000000 -0.045531
v 3.944167 0.000000 -5.053085
v 3.944167 -100.000000 -0.045531
v 3.944167 -100.000000 -5.053085
v 0.064703 0.000000 -5.053085
v 0.064703 -100.000000 -5.053085
v 0.064703 0.000000 -0.045531
v 0.064703 -100.000000 -0.045531
v 199.197894 0.000000 -0.062432
v 199.197894 0.000000 -7.149970
v 199.197894 -100.000000 -0.062432
v 199.197894 -100.000000 -7.149970
v 193.319716 0.000000 -7.149970
v 193.319716 -100.000000 -7.149970
v 193.319716 0.000000 -0.062432
v 193.319716 -100.000000 -0.062432
v 0.000000 0.000000 -100.000000
v 0.000000 0.000000 0.000000
v 0.000000 5.000000 0.000000
v 0.000000 5.000000 -100.000000
v 200.000000 0.000000 -100.000000
v 200.000000 5.000000 -100.000000
v 200.000000 0.000000 -0.000000
v 200.000000 5.000000 -0.000000
vn 1.000000 0.000000 -0.000000
vn 1.000000 0.000000 -0.000000
vn 1.000000 0.000000 -0.000000
vn 1.000000 0.000000 -0.000000
vn 0.000000 0.000000 -1.000000
vn 0.000000 0.000000 -1.000000
vn 0.000000 0.000000 -1.000000
vn 0.000000 0.000000 -1.000000
vn -1.000000 -0.000000 -0.000000
vn -1.000000 -0.000000 -0.000000
vn -1.000000 -0.000000 -0.000000
vn -1.000000 -0.000000 -0.000000
vn 0.000000 0.000000 1.000000
vn 0.000000 0.000000 1.000000
vn 0.000000 0.000000 1.000000
vn 0.000000 0.000000 1.000000
vn 0.000000 -1.000000 0.000000
vn 0.000000 -1.000000 0.000000
vn 0.000000 -1.000000 0.000000
vn 0.000000 -1.000000 0.000000
vn -1.000000 -0.000000 -0.000000
vn -1.000000 -0.000000 -0.000000
vn -1.000000 -0.000000 -0.000000
vn -1.000000 -0.000000 -0.000000
vn 0.000000 0.000000 1.000000
vn 0.000000 0.000000 1.000000
vn 0.000000 0.000000 1.000000
vn 0.000000 0.000000 1.000000
vn 1.000000 0.000000 -0.000000
vn 1.000000 0.000000 -0.000000
vn 1.000000 0.000000 -0.000000
vn 1.000000 0.000000 -0.000000
vn 0.000000 0.000000 -1.000000
vn 0.000000 0.000000 -1.000000
vn 0.000000 0.000000 -1.000000
vn 0.000000 0.000000 -1.000000
vn 0.000000 -1.000000 0.000000
vn 0.000000 -1.000000 0.000000
vn 0.000000 -1.000000 0.000000
vn 0.000000 -1.000000 0.000000
vn 1.000000 0.000000 -0.000000
vn 1.000000 0.000000 -0.000000
vn 1.000000 0.000000 -0.000000
vn 1.000000 0.000000 -0.000000
vn 0.000000 0.000000 -1.000000
vn 0.000000 0.000000 -1.000000
vn 0.000000 0.000000 -1.000000
vn 0.000000 0.000000 -1.000000
vn -1.000000 -0.000000 -0.000000
vn -1.000000 -0.000000 -0.000000
vn -1.000000 -0.000000 -0.000000
vn -1.000000 -0.000000 -0.000000
vn 0.000000 0.000000 1.000000
vn 0.000000 0.000000 1.000000
vn 0.000000 0.000000 1.000000
vn 0.000000 0.000000 1.000000
vn 0.000000 -1.000000 0.000000
vn 0.000000 -1.000000 0.000000
vn 0.000000 -1.000000 0.000000
vn 0.000000 -1.000000 0.000000
vn 1.000000 0.000000 -0.000000
vn 1.000000 0.000000 -0.000000
vn 1.000000 0.000000 -0.000000
vn 1.000000 0.000000 -0.000000
vn 0.000000 0.000000 -1.000000
vn 0.000000 0.000000 -1.000000
vn 0.000000 0.000000 -1.000000
vn 0.000000 0.000000 -1.000000
vn -1.000000 -0.000000 -0.000000
vn -1.000000 -0.000000 -0.000000
vn -1.000000 -0.000000 -0.000000
vn -1.000000 -0.000000 -0.000000
vn 0.000000 0.000000 1.000000
vn 0.000000 0.000000 1.000000
vn 0.000000 0.000000 1.000000
vn 0.000000 0.000000 1.000000
vn 0.000000 -1.000000 0.000000
vn 0.000000 -1.000000 0.000000
vn 0.000000 -1.000000 0.000000
vn 0.000000 -1.000000 0.000000
vn -1.000000 0.000000 -0.000000
vn -1.000000 0.000000 -0.000000
vn -1.000000 0.000000 -0.000000
vn -1.000000 0.000000 -0.000000
vn 0.000000 0.000000 -1.000000
vn 0.000000 0.000000 -1.000000
vn 0.000000 0.000000 -1.000000
vn 0.000000 0.000000 -1.000000
vn 1.000000 -0.000000 0.000000
vn 1.000000 -0.000000 0.000000
vn 1.000000 -0.000000 0.000000
vn 1.000000 -0.000000 0.000000
vn 0.000000 -0.000000 1.000000
vn 0.000000 -0.000000 1.000000
vn 0.000000 -0.000000 1.000000
vn 0.000000 -0.000000 1.000000
vn 0.000000 1.000000 0.000000
vn 0.000000 1.000000 0.000000
vn 0.000000 1.000000 0.000000
vn 0.000000 1.000000 0.000000
vn 0.000000 -1.000000 0.000000
vn 0.000000 -1.000000 0.000000
vn 0.000000 -1.000000 0.000000
vn 0.000000 -1.000000 0.000000
vn 0.000000 -1.000000 0.000000
vn 0.000000 -1.000000 0.000000
vn 0.000000 -1.000000 0.000000
vn 0.000000 -1.000000 0.000000
vn 0.000000 -1.000000 0.000000
vn 0.000000 -1.000000 0.000000
vn 0.000000 -1.000000 0.000000
vn 0.000000 -1.000000 0.000000
vn 0.000000 -1.000000 0.000000
vn 0.000000 -1.000000 0.000000
vn 0.000000 -1.000000 0.000000
vn 0.000000 -1.000000 0.000000
vn 0.000000 -1.000000 0.000000
vn 0.000000 -1.000000 0.000000
vn 0.000000 -1.000000 0.000000
vn 0.000000 -1.000000 0.000000
usemtl Material_1
f 3//3 2//1 1//2
f 4//4 2//1 3//3
f 4//7 5//5 2//6
f 6//8 5//5 4//7
f 6//11 7//9 5//10
f 8//12 7//9 6//11
f 8//15 1//13 7//14
f 3//16 1//13 8//15
f 6//19 4//20 3//17
f 6//19 3//17 8//18
f 11//23 10//21 9//22
f 12//24 10//21 11//23
f 12//27 13//25 10//26
f 14//28 13//25 12//27
f 14//31 15//29 13//30
f 16//32 15//29 14//31
f 16//35 9//33 15//34
f 11//36 9//33 16//35
f 14//39 11//37 16//38
f 12//40 11//37 14//39
f 19//43 18//41 17//42
f 20//44 18//41 19//43
f 20//47 21//45 18//46
f 22//48 21//45 20//47
f 22//51 23//49 21//50
f 24//52 23//49 22//51
f 24//55 17//53 23//54
f 19//56 17//53 24//55
f 22//59 19//57 24//58
f 20//60 19//57 22//59
f 27//63 26//61 25//62
f 28//64 26//61 27//63
f 28//67 29//65 26//66
f 30//68 29//65 28//67
f 30//71 31//69 29//70
f 32//72 31//69 30//71
f 32//75 25//73 31//74
f 27//76 25//73 32//75
f 30//79 27//77 32//78
f 28//80 27//77 30//79
f 35//83 33//81 34//82
f 36//84 33//81 35//83
f 36//87 37//85 33//86
f 38//88 37//85 36//87
f 38//91 39//89 37//90
f 40//92 39//89 38//91
f 40//95 34//93 39//94
f 35//96 34//93 40//95
f 38//99 35//97 40//98
f 36//100 35//97 38//99
f 1//105 37//104 26//118
f 5//107 33//103 37//104
f 2//106 37//104 1//105
f 15//112 5//107 7//108
f 5//107 37//104 2//106
f 26//118 7//108 1//105
f 10//110 34//102 33//103
f 15//112 33//103 5//107
f 18//114 10//110 13//111
f 10//110 33//103 9//109
f 15//112 7//108 13//111
f 15//112 9//109 33//103
f 31//120 39//101 34//102
f 18//114 13//111 29//119
f 25//117 39//101 31//120
f 21//115 34//102 10//110
f 21//115 10//110 18//114
f 23//116 17//113 34//102
f 23//116 34//102 21//115
f 26//118 37//104 39//101
f 31//120 34//102 17//113
f 26//118 39//101 25//117
f 31//120 17//113 18//114
f 29//119 13//111 7//108
f 29//119 7//108 26//118
f 31//120 18//114 29//119
