# CAD Exchanger 3.5.3 (cadexchanger.com)
# Object Count: 1
mtllib Barcode.mtl
g Solid1
v -0.000000 0.000000 -3.000000
v 2.500000 0.000000 -3.000000
v -0.000000 12.000000 -3.000000
v 2.500000 12.000000 -3.000000
v 2.500000 0.000000 -1.500000
v 2.500000 12.000000 -1.500000
v 4.000000 0.000000 -1.500000
v 4.000000 12.000000 -1.500000
v 4.000000 0.000000 -0.000000
v 4.000000 12.000000 -0.000000
v 0.000000 0.000000 0.000000
v 0.000000 12.000000 0.000000
vn 0.000000 0.000000 -1.000000
vn 0.000000 0.000000 -1.000000
vn 0.000000 0.000000 -1.000000
vn 0.000000 0.000000 -1.000000
vn 1.000000 -0.000000 0.000000
vn 1.000000 -0.000000 0.000000
vn 1.000000 -0.000000 0.000000
vn 1.000000 -0.000000 0.000000
vn 0.000000 0.000000 -1.000000
vn 0.000000 0.000000 -1.000000
vn 0.000000 0.000000 -1.000000
vn 0.000000 0.000000 -1.000000
vn 1.000000 -0.000000 0.000000
vn 1.000000 -0.000000 0.000000
vn 1.000000 -0.000000 0.000000
vn 1.000000 -0.000000 0.000000
vn 0.000000 -0.000000 1.000000
vn 0.000000 -0.000000 1.000000
vn 0.000000 -0.000000 1.000000
vn 0.000000 -0.000000 1.000000
vn -1.000000 0.000000 0.000000
vn -1.000000 0.000000 0.000000
vn -1.000000 0.000000 0.000000
vn -1.000000 0.000000 0.000000
vn 0.000000 -1.000000 0.000000
vn 0.000000 -1.000000 0.000000
vn 0.000000 -1.000000 0.000000
vn 0.000000 -1.000000 0.000000
vn 0.000000 -1.000000 0.000000
vn 0.000000 -1.000000 0.000000
vn 0.000000 1.000000 0.000000
vn 0.000000 1.000000 0.000000
vn 0.000000 1.000000 0.000000
vn 0.000000 1.000000 0.000000
vn 0.000000 1.000000 0.000000
vn 0.000000 1.000000 0.000000
usemtl Material_1
f 3//3 2//1 1//2
f 4//4 2//1 3//3
f 4//7 5//5 2//6
f 6//8 5//5 4//7
f 6//11 7//9 5//10
f 8//12 7//9 6//11
f 8//15 9//13 7//14
f 10//16 9//13 8//15
f 10//19 11//17 9//18
f 12//20 11//17 10//19
f 12//23 1//21 11//22
f 3//24 1//21 12//23
f 5//28 11//25 1//26
f 5//28 1//26 2//27
f 9//30 11//25 5//28
f 9//30 5//28 7//29
f 6//35 4//36 3//31
f 6//35 12//32 10//33
f 6//35 3//31 12//32
f 6//35 10//33 8//34
