# CAD Exchanger 3.5.3 (cadexchanger.com)
# Object Count: 1
mtllib Bin.mtl
g Solid1
v 0.500000 20.000000 -0.500000
v 0.500000 20.000000 -29.500000
v 0.500000 0.500000 -0.500000
v 0.500000 0.500000 -29.500000
v 19.500000 20.000000 -0.500000
v 19.500000 0.500000 -0.500000
v 19.500000 20.000000 -29.500000
v 19.500000 0.500000 -29.500000
v 20.023056 19.500000 -30.000000
v 20.023056 20.000000 -30.000000
v 20.023056 19.500000 -0.000000
v 20.023056 20.000000 -0.000000
v 20.023056 20.000000 10.000000
v 20.023056 19.479136 10.000000
v 20.023056 19.479136 -40.000000
v 20.023056 20.000000 -40.000000
v 0.000000 19.479136 -40.000000
v 0.000000 20.000000 -40.000000
v 0.000000 19.479136 -30.000000
v 20.000000 19.479136 -30.000000
v 0.000000 19.479136 10.000000
v 0.000000 19.479136 0.000000
v 20.000000 19.479136 -0.000000
v 0.000000 20.000000 10.000000
v 20.000000 0.000000 -0.000000
v 20.000000 0.000000 -30.000000
v 30.000000 20.000000 -30.000000
v 30.000000 19.500000 -30.000000
v 0.000000 20.000000 -30.000000
v 0.000000 19.500000 -30.000000
v -10.000000 19.500000 -30.000000
v -10.000000 20.000000 -30.000000
v 0.000000 19.500000 -0.000000
v 0.000000 20.000000 0.000000
v -10.000000 20.000000 -0.000000
v -10.000000 19.500000 -0.000000
v 30.000000 19.500000 0.000000
v 30.000000 20.000000 0.000000
v 0.000000 0.000000 0.000000
v -0.000000 0.000000 -30.000000
vn 1.000000 0.000000 -0.000000
vn 1.000000 0.000000 -0.000000
vn 1.000000 0.000000 -0.000000
vn 1.000000 0.000000 -0.000000
vn -0.000000 -0.000000 -1.000000
vn -0.000000 -0.000000 -1.000000
vn -0.000000 -0.000000 -1.000000
vn -0.000000 -0.000000 -1.000000
vn -1.000000 -0.000000 -0.000000
vn -1.000000 -0.000000 -0.000000
vn -1.000000 -0.000000 -0.000000
vn -1.000000 -0.000000 -0.000000
vn 0.000000 0.000000 1.000000
vn 0.000000 0.000000 1.000000
vn 0.000000 0.000000 1.000000
vn 0.000000 0.000000 1.000000
vn 0.000000 1.000000 0.000000
vn 0.000000 1.000000 0.000000
vn 0.000000 1.000000 0.000000
vn 0.000000 1.000000 0.000000
vn 1.000000 0.000000 0.000000
vn 1.000000 0.000000 0.000000
vn 1.000000 0.000000 0.000000
vn 1.000000 0.000000 0.000000
vn 1.000000 0.000000 0.000000
vn 1.000000 0.000000 0.000000
vn 1.000000 0.000000 0.000000
vn 1.000000 0.000000 0.000000
vn 0.000000 0.000000 -1.000000
vn 0.000000 0.000000 -1.000000
vn 0.000000 0.000000 -1.000000
vn 0.000000 0.000000 -1.000000
vn 0.000000 -1.000000 0.000000
vn 0.000000 -1.000000 0.000000
vn 0.000000 -1.000000 0.000000
vn 0.000000 -1.000000 0.000000
vn 0.000000 -1.000000 0.000000
vn 0.000000 -1.000000 0.000000
vn 0.000000 -1.000000 0.000000
vn 0.000000 -1.000000 0.000000
vn 0.000000 0.000000 1.000000
vn 0.000000 0.000000 1.000000
vn 0.000000 0.000000 1.000000
vn 0.000000 0.000000 1.000000
vn 1.000000 -0.000000 0.000000
vn 1.000000 -0.000000 0.000000
vn 1.000000 -0.000000 0.000000
vn 1.000000 -0.000000 0.000000
vn 0.000000 0.000000 -1.000000
vn 0.000000 0.000000 -1.000000
vn 0.000000 0.000000 -1.000000
vn 0.000000 0.000000 -1.000000
vn 0.000000 0.000000 -1.000000
vn 0.000000 0.000000 -1.000000
vn 0.000000 0.000000 -1.000000
vn 0.000000 0.000000 -1.000000
vn 0.000000 -0.000000 1.000000
vn 0.000000 -0.000000 1.000000
vn 0.000000 -0.000000 1.000000
vn 0.000000 -0.000000 1.000000
vn 0.000000 -0.000000 1.000000
vn 0.000000 -0.000000 1.000000
vn 0.000000 -0.000000 1.000000
vn 0.000000 -0.000000 1.000000
vn 0.000000 -0.000000 1.000000
vn 0.000000 -0.000000 1.000000
vn 0.000000 -0.000000 1.000000
vn 0.000000 -0.000000 1.000000
vn 0.000000 -1.000000 0.000000
vn 0.000000 -1.000000 0.000000
vn 0.000000 -1.000000 0.000000
vn 0.000000 -1.000000 0.000000
vn -1.000000 0.000000 0.000000
vn -1.000000 0.000000 0.000000
vn -1.000000 0.000000 0.000000
vn -1.000000 0.000000 0.000000
vn 0.000000 -1.000000 0.000000
vn 0.000000 -1.000000 0.000000
vn 0.000000 -1.000000 0.000000
vn 0.000000 -1.000000 0.000000
vn 1.000000 -0.000000 0.000000
vn 1.000000 -0.000000 0.000000
vn 1.000000 -0.000000 0.000000
vn 1.000000 -0.000000 0.000000
vn -1.000000 0.000000 0.000000
vn -1.000000 0.000000 0.000000
vn -1.000000 0.000000 0.000000
vn -1.000000 0.000000 0.000000
vn -1.000000 0.000000 0.000000
vn -1.000000 0.000000 0.000000
vn -1.000000 0.000000 0.000000
vn -1.000000 0.000000 0.000000
vn -1.000000 0.000000 0.000000
vn -1.000000 0.000000 0.000000
vn -1.000000 0.000000 0.000000
vn -1.000000 0.000000 0.000000
vn 0.000000 0.000000 -1.000000
vn 0.000000 0.000000 -1.000000
vn 0.000000 0.000000 -1.000000
vn 0.000000 0.000000 -1.000000
vn 0.000000 1.000000 0.000000
vn 0.000000 1.000000 0.000000
vn 0.000000 1.000000 0.000000
vn 0.000000 1.000000 0.000000
vn 0.000000 1.000000 0.000000
vn 0.000000 1.000000 0.000000
vn 0.000000 1.000000 0.000000
vn 0.000000 1.000000 0.000000
vn 0.000000 1.000000 0.000000
vn 0.000000 1.000000 0.000000
vn 0.000000 1.000000 0.000000
vn 0.000000 1.000000 0.000000
vn 0.000000 1.000000 0.000000
vn 0.000000 1.000000 0.000000
vn 0.000000 1.000000 0.000000
vn 0.000000 1.000000 0.000000
vn 0.000000 -1.000000 0.000000
vn 0.000000 -1.000000 0.000000
vn 0.000000 -1.000000 0.000000
vn 0.000000 -1.000000 0.000000
usemtl Material_1
f 3//3 2//1 1//2
f 4//4 2//1 3//3
f 6//7 1//5 5//6
f 3//8 1//5 6//7
f 8//11 5//9 7//10
f 6//12 5//9 8//11
f 4//15 7//13 2//14
f 8//16 7//13 4//15
f 3//19 8//17 4//18
f 6//20 8//17 3//19
f 9//22 16//28 10//21
f 13//25 11//23 12//24
f 14//26 11//23 13//25
f 14//26 9//22 11//23
f 14//26 15//27 9//22
f 16//28 9//22 15//27
f 18//31 15//29 17//30
f 16//32 15//29 18//31
f 17//35 15//36 20//33
f 17//35 20//33 19//34
f 23//40 14//37 21//38
f 15//36 14//37 20//33
f 23//40 20//33 14//37
f 23//40 21//38 22//39
f 13//43 21//41 14//42
f 24//44 21//41 13//43
f 25//47 20//45 23//46
f 26//48 20//45 25//47
f 10//50 27//51 9//49
f 28//52 9//49 27//51
f 30//54 31//55 29//53
f 32//56 29//53 31//55
f 34//58 35//59 33//57
f 36//60 33//57 35//59
f 11//62 37//63 12//61
f 38//64 12//61 37//63
f 39//67 23//65 22//66
f 25//68 23//65 39//67
f 28//71 11//69 9//70
f 37//72 11//69 28//71
f 31//75 36//76 35//73
f 31//75 35//73 32//74
f 36//79 31//80 30//77
f 36//79 30//77 33//78
f 37//83 28//84 27//81
f 37//83 27//81 38//82
f 17//96 30//93 18//95
f 39//87 19//85 40//86
f 22//88 19//85 39//87
f 33//92 22//88 21//89
f 33//92 19//85 22//88
f 33//92 21//89 24//90
f 33//92 24//90 34//91
f 33//92 30//93 19//85
f 17//96 19//85 30//93
f 18//95 30//93 29//94
f 26//99 19//97 20//98
f 40//100 19//97 26//99
f 2//114 29//101 32//102
f 1//113 32//102 35//103
f 1//113 34//104 24//105
f 1//113 24//105 5//116
f 5//116 12//107 38//108
f 7//115 38//108 27//109
f 16//111 7//115 10//110
f 18//112 7//115 16//111
f 1//113 35//103 34//104
f 24//105 13//106 5//116
f 2//114 18//112 29//101
f 2//114 32//102 1//113
f 7//115 27//109 10//110
f 7//115 18//112 2//114
f 5//116 13//106 12//107
f 5//116 38//108 7//115
f 40//119 25//117 39//118
f 26//120 25//117 40//119
